<?xml version="1.0" encoding="UTF-8" standalone="no"?>
<svg
   xmlns:dc="http://purl.org/dc/elements/1.1/"
   xmlns:cc="http://creativecommons.org/ns#"
   xmlns:rdf="http://www.w3.org/1999/02/22-rdf-syntax-ns#"
   xmlns:svg="http://www.w3.org/2000/svg"
   xmlns="http://www.w3.org/2000/svg"
   xmlns:sodipodi="http://sodipodi.sourceforge.net/DTD/sodipodi-0.dtd"
   xmlns:inkscape="http://www.inkscape.org/namespaces/inkscape"
   id="svg4"
   version="1.1"
   height="18"
   width="18"
   sodipodi:docname="vpn-off-symbolic.svg"
   inkscape:version="0.92.4 (5da689c313, 2019-01-14)">
  <sodipodi:namedview
     pagecolor="#ffffff"
     bordercolor="#666666"
     borderopacity="1"
     objecttolerance="10"
     gridtolerance="10"
     guidetolerance="10"
     inkscape:pageopacity="0"
     inkscape:pageshadow="2"
     inkscape:window-width="1920"
     inkscape:window-height="1017"
     id="namedview6"
     showgrid="false"
     inkscape:zoom="14.75"
     inkscape:cx="16.113925"
     inkscape:cy="-1.2283867"
     inkscape:window-x="-8"
     inkscape:window-y="32"
     inkscape:window-maximized="1"
     inkscape:current-layer="svg4" />
  <metadata
     id="metadata10">
    <rdf:RDF>
      <cc:Work
         rdf:about="">
        <dc:format>image/svg+xml</dc:format>
        <dc:type
           rdf:resource="http://purl.org/dc/dcmitype/StillImage" />
        <dc:title></dc:title>
      </cc:Work>
    </rdf:RDF>
  </metadata>
  <defs
     id="defs8" />
  <g
     id="g857"
     transform="translate(0.88995404,0.97810045)">
    <path
       id="path2-8"
       style="fill:#ff0000"
       d="m 12.135593,1.0456171 c -2.2159998,0 -3.9999998,1.7840001 -3.9999998,4 V 7.0338983 H 10.135593 V 5.0456171 c 0,-1.108 0.892,-1.9999999 2,-1.9999999 1.108,0 2,0.8919999 2,1.9999999 v 1.9882812 h 2 V 5.0456171 c 0,-2.2159999 -1.784,-4 -4,-4 z M 1.0259059,7.0099011 C 0.50093392,7.0416391 0.08449892,7.4649573 0.08449892,7.9981823 v 5.9999997 c 0,0.554 0.446,1 0.99999998,1 H 11.084499 c 0.554,0 1,-0.446 1,-1 V 7.9981823 c 0,-0.533225 -0.416435,-0.9565431 -0.941406,-0.9882812 z"
       inkscape:connector-curvature="0" />
  </g>
</svg>
